P1
# 5 columns x 4 lines
5 4
1 0 1 0 1
1 0 1 0 1
1 0 1 0 1
1 0 1 0 1